<?xml version="1.0" encoding="UTF-8" standalone="no"?>
<!-- Created with Inkscape (http://www.inkscape.org/) -->

<svg
   xmlns:dc="http://purl.org/dc/elements/1.1/"
   xmlns:cc="http://creativecommons.org/ns#"
   xmlns:rdf="http://www.w3.org/1999/02/22-rdf-syntax-ns#"
   xmlns:svg="http://www.w3.org/2000/svg"
   xmlns="http://www.w3.org/2000/svg"
   xmlns:sodipodi="http://sodipodi.sourceforge.net/DTD/sodipodi-0.dtd"
   xmlns:inkscape="http://www.inkscape.org/namespaces/inkscape"
   width="2400"
   height="1000"
   id="svg3003"
   version="1.1"
   inkscape:version="0.48.0 r9654"
   sodipodi:docname="new2_bright.svg"
   inkscape:export-filename="/Users/lgarron/Documents/projects/Serendipity Photo Block/Serendipity Logo/brt.png"
   inkscape:export-xdpi="180"
   inkscape:export-ydpi="180">
  <defs
     id="defs3005">
    <filter
       inkscape:collect="always"
       id="filter3773">
      <feGaussianBlur
         inkscape:collect="always"
         stdDeviation="6.2832223"
         id="feGaussianBlur3775" />
    </filter>
    <filter
       inkscape:collect="always"
       id="filter3779">
      <feGaussianBlur
         inkscape:collect="always"
         stdDeviation="12.566445"
         id="feGaussianBlur3781" />
    </filter>
  </defs>
  <sodipodi:namedview
     id="base"
     pagecolor="#ffffff"
     bordercolor="#666666"
     borderopacity="1.0"
     inkscape:pageopacity="0.0"
     inkscape:pageshadow="2"
     inkscape:zoom="0.59791667"
     inkscape:cx="916.51568"
     inkscape:cy="500"
     inkscape:document-units="px"
     inkscape:current-layer="layer1"
     showgrid="false"
     inkscape:window-width="1920"
     inkscape:window-height="963"
     inkscape:window-x="0"
     inkscape:window-y="0"
     inkscape:window-maximized="1" />
  <metadata
     id="metadata3008">
    <rdf:RDF>
      <cc:Work
         rdf:about="">
        <dc:format>image/svg+xml</dc:format>
        <dc:type
           rdf:resource="http://purl.org/dc/dcmitype/StillImage" />
        <dc:title></dc:title>
      </cc:Work>
    </rdf:RDF>
  </metadata>
  <g
     inkscape:label="Layer 1"
     inkscape:groupmode="layer"
     id="layer1"
     transform="translate(0,-52.362183)">
    <path
       style="fill:#000000;fill-opacity:1;stroke:none"
       d="m 1344.4593,251.25491 c -38.0296,0.32927 -52.5335,19.39034 -55.0624,37.90625 -4.0899,29.94406 18.3361,37.57017 29.8124,37.875 -13.0059,-13.93496 -13.9703,-33.44307 -2.9375,-43.65625 13.7718,-12.74854 47.7348,-22.69057 84.9375,12.625 62.2125,67.3211 47.1635,156.86416 29.625,219.875 4.7257,-31.3921 -12.7551,-48.35125 -44.4375,-51.96875 -91.4163,-10.43792 -142.5966,138.05182 -66.6562,153.375 127.9562,17.15565 195.4558,-192.14295 117.125,-312.96875 -24.717,-38.12603 -58.0832,-53.35967 -92.4063,-53.0625 z m -749.28117,57.875 c -36.4766,0.6046 -81.8056,22.5249 -119.75,56.34375 -57.3317,51.09825 -97.1294,132.87054 -62.8437,157.15625 34.2857,24.28571 111.678,-36.20089 141.4062,-28 20.7143,5.71429 21.8402,39.67529 -15,103.5625 -29.9239,51.89326 -78.7306,89.3585 -116.0625,114.1875 -37.1278,24.6934 -70.631,38.0329 -101.7812,39.5312 -17.0591,0.8207 -38.1018,-6.7336 -49.6875,-23.4374 -14.4422,-20.8225 -4.7211,-53.4811 13.25,-70.1563 35.9118,-33.32225 56.4272,-39.33556 94.1875,-47.6875 34.293,-7.58504 72.9687,2.6875 72.9687,2.6875 0,0 -34.1292,-20.36792 -74.2812,-15.84375 -50.7143,5.71429 -117.1384,45.13843 -129.2813,92.28125 -9.251,35.9156 15.8503,87.3131 89.2813,75.7188 67.8571,-10.7143 162.9334,-72.4553 215.7187,-139.2813 44.6715,-56.55383 58.1962,-109.83682 45.6875,-138.5625 -12.5158,-28.74207 -55.9067,-24.18281 -92.8437,-10 -19.4181,7.456 -62.2287,28.22153 -66.4375,17.21875 -9.3037,-24.32161 13.2601,-69.28789 56.4375,-117.21875 43.3548,-48.12775 98.558,-60.73214 122.8437,-47.875 24.2857,12.85714 24.883,32.76643 -6.4062,66.4375 -34.7403,37.38483 -91.6031,24.18915 -96.4375,24.28125 14.8501,11.52668 34.2723,14.65179 52.8437,11.4375 56.9357,-9.85426 111.8904,-78.21966 66.4375,-111.4375 -11.0181,-8.05227 -24.8487,-11.59902 -40.25,-11.34375 z m 1415.71867,1 c -4.0771,0.15527 -10.7718,2.52324 -16.8125,6.5 -18.4129,12.12183 -78.9375,127.84375 -78.9375,127.84375 0,0 -35.8482,-6.41518 -41.5625,-7.84375 -5.7142,-1.42857 -3.675,9.69583 4.4063,22.34375 6.5379,10.23252 25,11.21875 25,11.21875 -0.073,0.21978 -45.2342,96.2714 -50.4688,125.625 -2.1786,12.21675 4.4308,21.77202 18.4375,21.65625 11.6389,-0.0962 42.4931,-8.68518 68.1875,-34.03125 -30.3107,11.92331 -49.9236,13.59089 -56.7812,7.65625 -6.8577,-5.93464 41.479,-114.49554 51.3437,-118.78125 7.0863,-3.07862 41.5266,-7.10408 67.4063,-16.59375 27.4048,-10.04889 48.3124,-34.09375 48.3124,-34.09375 0.2963,0 -23.9766,12.45449 -56.9687,17.84375 -12.1152,1.97901 -45.158,7.39217 -53.75,6.4375 3.8168,-19.08376 70.7024,-123.06177 75.4375,-131.875 1.5171,-2.8238 -0.079,-4.02702 -3.25,-3.90625 z m -458.8125,86.375 c -5.3329,0.12464 -10.2688,0.83422 -11.5313,1.65625 -2.8858,1.87892 -34.868,33.55025 -31.25,37.8125 3.618,4.26226 11.6044,2.83998 16.0313,1.3125 4.4246,-1.5267 44.8694,-32.15603 42.4375,-37.34375 -1.3039,-2.78115 -8.8309,-3.59776 -15.6875,-3.4375 z m 291,0 c -5.3329,0.12464 -10.2688,0.83422 -11.5313,1.65625 -2.8857,1.87892 -34.868,33.55025 -31.25,37.8125 3.618,4.26226 11.6044,2.83998 16.0313,1.3125 4.4246,-1.5267 44.8694,-32.15603 42.4375,-37.34375 -1.3039,-2.78115 -8.8309,-3.59776 -15.6875,-3.4375 z m -670.1249,65.25 c -3.4831,-0.0534 -7.1276,1.12799 -10.125,3.4375 -5.5395,4.2681 -22.4513,23.3172 -42.375,20 -6.496,-1.0816 -7.5,14.59375 -7.5,14.59375 8.4853,6.24482 30.8655,-2.23573 39.8437,-6.78125 -15.1714,43.8236 -25.8784,90.72215 -46.9687,127.78125 0,0 18.0133,-0.0969 29.125,-12.21875 11.1116,-12.1218 31.7304,-64.4137 36.7812,-73 5.0508,-8.5863 18.274,-19.2048 31.8438,-25.125 13.5698,-5.9202 24.062,-10.46775 27.6562,-1.03125 2.3854,6.263 -26.6033,58.5904 -33.875,78.25 -7.2604,19.6289 -2.4578,34.0517 13,30.5 24.3227,-5.5887 63.8329,-30.14945 46.5,-38.78125 -7.3785,-3.6745 -32.4353,15.95245 -37.375,14.15625 0,0 40.4492,-61.21205 45.5,-105.40625 2.945,-25.7688 -17.3935,-23.52985 -32.7812,-15.53125 -30.8445,16.03296 -55.4264,35.37991 -59.9688,41.84375 2.0864,-4.74149 14.2628,-32.8635 12.9375,-41.90625 -1.0572,-7.21338 -6.4136,-10.69223 -12.2187,-10.78125 z m 356.1249,0.0312 c -14.2627,0.20441 -38.3765,4.75763 -37.9375,9.125 0.6052,6.02227 14.866,6.69112 15.5625,4.75 0.041,0.39231 -22.3526,57.29195 -37.3125,92.40625 -9.101,21.36207 -19.466,38.26375 -4.2188,47.1875 19.0929,11.17449 77.3438,-38.53125 77.3438,-38.53125 0,0 -41.0864,18.75714 -48.125,11.90625 -2.7557,-2.6821 2.5378,-20.00741 12.5625,-43.21875 14.864,-34.41611 37.4091,-77.58759 31.8125,-82.21875 -1.2874,-1.0653 -4.9333,-1.47439 -9.6875,-1.40625 z m 291,0 c -14.2627,0.20441 -38.3765,4.75763 -37.9375,9.125 0.6052,6.02227 14.866,6.69112 15.5625,4.75 0.041,0.39231 -22.3526,57.29195 -37.3125,92.40625 -9.101,21.36207 -19.466,38.26375 -4.2188,47.1875 19.0929,11.17449 77.3438,-38.53125 77.3438,-38.53125 0,0 -41.0864,18.75714 -48.125,11.90625 -2.7557,-2.6821 2.5378,-20.00741 12.5625,-43.21875 14.864,-34.41611 37.4091,-77.58759 31.8125,-82.21875 -1.2874,-1.0653 -4.9333,-1.47439 -9.6875,-1.40625 z m -129.9063,0.4688 c -31.7745,0.36309 -71.5312,43.46875 -71.5312,43.46875 0,0 15.0554,-35.00402 1.9375,-38.90625 -12.6605,-3.76616 -17.9911,6.81027 -26.5625,13.875 -8.5714,7.06472 -24.1474,10.54525 -27.7188,11.1875 -3.5715,0.64224 -13.3571,5.37277 -5.5,12.4375 7.8571,7.06472 36.2188,-7.9375 36.2188,-7.9375 -30.4214,88.22032 -73.2645,317.6961 -194.4375,357.0938 74.6889,-4.7399 123.3736,-82.3263 144.4375,-127.7813 23.1121,-49.875 50.3954,-133.99448 51.9688,-134.9375 0,0 16.7297,30.87069 58.1562,26.6875 50.5183,-5.1014 90.0534,-71.91016 90.1562,-104.125 0.097,-30.36335 -16.7778,-51.52355 -57.125,-51.0625 z m -840.03107,1.875 c -5.8239,-0.10521 -7.6541,4.33366 -20.0313,15.3125 -11.7147,10.39123 -26.2948,7.62228 -32.7812,9.90625 -3.6931,1.30039 -5.4869,8.67016 -7.2188,14.03125 8.041,8.28307 38.9113,-4.17335 38.9063,-4.5625 0,0 -14.0723,49.47887 -22,79.53125 -7.9277,30.05237 -22.7188,48.6875 -22.7188,48.6875 0,0 10.3411,-3.14699 27.4063,-14.46875 14.6956,-9.7497 15.1108,-18.32693 19.8125,-31.5625 5.2898,-14.89137 8.664,-20.42493 20.5625,-38.0625 5.6439,-8.36617 10.1399,-13.11264 25.5937,-24.71875 15.9867,-12.0063 27.7338,-19.02609 38.1875,-20.90625 6.0844,-1.09432 11.4904,10.273 12.625,10.25 5.8441,-0.11832 15.8778,-7.99273 16.2188,-21.6875 0.3624,-14.55528 -15.8969,-21.04541 -28.125,-18.625 -10.9882,2.17499 -58.1008,40.53927 -62.5625,44.1875 2.1717,-2.39682 6.4349,-11.03874 8.875,-28.96875 2.5149,-18.47968 -4.6724,-17.50211 -11.5313,-18.25 -0.428,-0.0467 -0.8305,-0.0867 -1.2187,-0.0937 z m 1209.40607,2.0625 c -16.9309,0.54987 -75.6294,32.64821 -74.625,40.9375 3.7306,7.15743 31.426,-3.07925 31.375,-3.15625 10e-5,0 -34.2602,41.81896 -41.1562,66.0625 -4.5612,16.03539 1.1043,38.62508 20.375,44.65625 31.2163,9.76977 93.125,-43.4375 93.125,-43.4375 0,10e-6 -71.7598,179.3348 -207.7812,230.0938 -57.2124,21.3499 -119.1372,7.6597 -114.0626,-34.4063 4.605,-38.172 48.7775,-69.5451 69.5,-78.8125 48.9987,-21.9126 83.4565,-19.3999 115.7813,-5.1562 -33.2396,-34.56055 -98.7544,-16.2816 -125.0625,-5.125 -42.6774,18.0981 -112.9113,86.4429 -60.5,132.5624 59.8953,52.7052 172.3585,-9.1871 231.9062,-62.7812 71.8789,-64.6925 114.2086,-170.3443 122.2188,-186.0625 14.3365,-28.13198 47.0058,-82.56135 33.8125,-89.0625 -10.5009,-5.17443 -34.0247,34.49961 -69.5313,68.625 -28.7632,27.64448 -64.324,56.97948 -81.8124,52.5 -18.1629,-4.65222 15.0937,-52.41518 25.0937,-68.84375 10,-16.42857 45.7662,-54.09675 34.1563,-58.25 -0.7274,-0.2602 -1.6838,-0.38041 -2.8126,-0.34375 z m -1328.28107,1.03125 c -9.0878,0.0144 -19.2824,1.43098 -30.0625,4.4375 -42.744,11.92099 -78.6616,45.48911 -80.6875,79.34375 -2.6629,44.49928 27.6034,66.11948 69.5937,65.1875 46.1147,-1.02351 79.3443,-49.56266 74.0313,-47.96875 0,0 -12.1792,18.88894 -53.4375,25.96875 -47.7486,8.19352 -59.7698,-24.86013 -58.75,-25.625 5.2315,4.06899 52.3684,1.63833 79.625,-17.15625 28.5566,-19.69102 49.2513,-42.98504 39.1562,-66.5625 -4.691,-10.95597 -19.4756,-17.65674 -39.4687,-17.625 z m 318.90617,0 c -9.0878,0.0144 -19.2511,1.43098 -30.0312,4.4375 -42.74397,11.92099 -78.66157,45.48911 -80.68747,79.34375 -2.6629,44.49928 27.6034,66.11947 69.59367,65.1875 46.1147,-1.02352 79.313,-49.56266 74,-47.96875 0,0 -12.148,18.88894 -53.4062,25.96875 -47.74857,8.19353 -59.76987,-24.86013 -58.74997,-25.625 5.2315,4.069 52.36837,1.63832 79.62497,-17.15625 28.5565,-19.69103 49.22,-42.98504 39.125,-66.5625 -4.691,-10.95597 -19.4757,-17.65674 -39.4688,-17.625 z m 648.2187,12.8125 c 3.3826,0.0186 6.7782,0.50371 10.1875,1.46875 27.2742,7.72033 9.5842,50.58022 -2.5313,73.09375 -15.1521,28.15652 -48.307,53.03409 -69.1874,46.15625 -25.3779,-8.35945 -25.7394,-39.33538 -5.0313,-71.125 18.1197,-27.81593 42.8841,-49.72414 66.5625,-49.59375 z m -319.625,4.8125 c 29.9799,0.10752 39.2662,38.74035 19.7812,71.46875 -24.2996,40.81549 -58.5888,44.40436 -75.9687,38.3125 -39.2046,-13.74167 -6.9041,-76.52958 19.625,-95.40625 14.2979,-10.17362 26.5692,-14.41084 36.5625,-14.375 z m -663.09367,4.28125 c 9.4482,-0.0635 17.6077,2.27814 21.375,7.375 10.9089,14.75879 -5.6196,30.81597 -20.8437,38.8125 -36.2142,19.02159 -66.25,13.15625 -66.25,13.15625 0,0 2.5923,-20.84785 18.6875,-38.40625 9.6625,-10.54089 26.5561,-18.87809 40.3125,-20.5 2.2779,-0.26857 4.5384,-0.42285 6.7187,-0.4375 z m 318.90627,0 c 9.4481,-0.0635 17.6389,2.27815 21.4062,7.375 10.9088,14.75879 -5.6196,30.81598 -20.8437,38.8125 -36.21417,19.02159 -66.24997,13.15625 -66.24997,13.15625 0,0 2.5923,-20.84785 18.6875,-38.40625 9.6625,-10.54088 26.55607,-18.8781 40.31247,-20.5 2.2779,-0.26857 4.5071,-0.42285 6.6875,-0.4375 z"
       id="path3004"
       inkscape:connector-curvature="0"
       sodipodi:nodetypes="sscsccscsssssssssssscsssssssssscssssscsscsscssscsccsscsscssssscsssscccssssssscsscsssccssccssssccssccsssscssssccscssscssccscssssscsscscccsccsscssscsssssssscssssscscssssssscscssssssssssssssssscsssssscsss" />
  </g>
</svg>
